<svg width="124.42" height="71.48" viewBox="0 0 124.42 71.48" fill="none" xmlns="http://www.w3.org/2000/svg">
  <g transform="scale(0.9907142857 0.975)">
    <path d="M21.0644 16.1523C19.4704 14.9073 18.9104 12.8243 17.2894 11.5913C14.4094 8.97027 10.1943 10.5263 8.43333 13.6473C7.01133 16.1073 3.55534 17.2713 3.73534 20.5383C3.59434 23.0643 5.65833 25.1493 8.18333 25.0983C10.1003 25.2613 11.6523 23.9303 13.5083 23.7973C15.7633 24.0023 17.7423 25.8543 20.1073 25.2243C21.9243 24.8853 23.2313 23.5473 23.4983 21.7043C24.0803 19.4193 22.7514 17.5453 21.0644 16.1523Z" fill="#F9F6FE"/>
    <path d="M19.8523 8.32915C21.6833 6.83715 22.0272 4.07113 20.9842 2.02913C19.7922 -0.23787 17.1842 -0.48288 15.6842 1.58812C13.0632 4.56412 15.5723 11.2761 19.8523 8.32915Z" fill="#F9F6FE"/>
    <path d="M27.1428 8.44714C24.6418 4.67914 20.4188 8.40713 21.1428 12.0371C21.3058 13.2071 21.7888 14.1811 22.9458 14.6461C26.4418 16.1361 28.9328 11.1681 27.1428 8.44714Z" fill="#F9F6FE"/>
    <path d="M6.43224 12.2332C6.88824 10.4812 6.55025 8.18714 4.93725 7.17014C3.82125 6.04214 1.80524 6.35716 0.958245 7.62516C-0.476756 9.18816 -0.223718 11.9432 1.20928 13.4692C2.72128 15.2792 5.94524 14.5782 6.43224 12.2332Z" fill="#F9F6FE"/>
    <path d="M12.0701 7.91017C13.7001 6.20217 13.6961 3.41417 12.4061 1.51817C10.9401 -0.581829 8.32217 -0.499853 7.09217 1.74315C4.86417 5.02215 8.19213 11.3692 12.0701 7.91017Z" fill="#F9F6FE"/>
  </g>
</svg>
