<svg xmlns="http://www.w3.org/2000/svg" x="0" y="0" width="512" height="512" viewBox="0 0 512 512" preserveAspectRatio="xMidYMid meet"><svg viewBox="0 0 33 33" class="segno" x="0" y="0" width="512" height="512"><path fill="#fff" d="M0 0h33v33h-33z" /><path class="qrline" stroke="#9c6ade" d="M2 2.5h7m2 0h1m2 0h1m1 0h2m1 0h2m3 0h7m-29 1h1m5 0h1m2 0h5m2 0h1m1 0h1m1 0h1m1 0h1m5 0h1m-29 1h1m1 0h3m1 0h1m6 0h4m2 0h1m2 0h1m1 0h3m1 0h1m-29 1h1m1 0h3m1 0h1m6 0h1m3 0h2m3 0h1m1 0h3m1 0h1m-29 1h1m1 0h3m1 0h1m1 0h1m5 0h1m1 0h1m2 0h1m2 0h1m1 0h3m1 0h1m-29 1h1m5 0h1m3 0h1m1 0h1m3 0h5m1 0h1m5 0h1m-29 1h7m1 0h1m1 0h1m1 0h1m1 0h1m1 0h1m1 0h1m1 0h1m1 0h7m-21 1h2m3 0h2m1 0h1m3 0h1m-19 1h2m2 0h4m1 0h2m2 0h2m1 0h1m2 0h2m1 0h1m-22 1h1m1 0h1m2 0h1m1 0h4m1 0h2m1 0h1m4 0h3m2 0h1m-27 1h1m2 0h3m1 0h1m6 0h1m1 0h1m3 0h1m2 0h3m-26 1h4m1 0h1m3 0h1m1 0h2m1 0h1m2 0h1m3 0h3m2 0h1m-29 1h3m1 0h1m1 0h3m1 0h4m4 0h1m2 0h1m1 0h1m2 0h3m-29 1h3m2 0h1m1 0h1m1 0h1m3 0h4m2 0h1m2 0h2m1 0h2m1 0h1m-28 1h3m1 0h2m1 0h2m3 0h1m2 0h2m1 0h1m3 0h3m1 0h2m-29 1h1m1 0h1m2 0h1m5 0h1m3 0h2m1 0h1m1 0h3m1 0h2m-26 1h3m1 0h5m1 0h3m1 0h1m1 0h1m1 0h2m1 0h1m1 0h3m1 0h1m-26 1h3m4 0h2m1 0h3m1 0h1m2 0h2m1 0h2m2 0h1m-27 1h1m2 0h1m1 0h2m2 0h3m2 0h1m7 0h1m2 0h2m-25 1h1m1 0h1m3 0h1m1 0h1m1 0h2m1 0h1m1 0h6m2 0h2m1 0h1m-28 1h2m3 0h2m1 0h1m7 0h2m1 0h9m-21 1h1m2 0h5m4 0h1m3 0h2m1 0h2m-29 1h7m1 0h3m1 0h1m1 0h1m2 0h4m1 0h1m1 0h1m1 0h2m-28 1h1m5 0h1m3 0h1m1 0h6m2 0h1m3 0h1m-25 1h1m1 0h3m1 0h1m2 0h1m1 0h1m2 0h2m2 0h1m1 0h7m1 0h1m-29 1h1m1 0h3m1 0h1m1 0h1m4 0h1m1 0h1m1 0h3m4 0h1m1 0h2m-28 1h1m1 0h3m1 0h1m1 0h1m2 0h1m2 0h1m2 0h2m1 0h1m2 0h1m4 0h1m-29 1h1m5 0h1m2 0h1m2 0h1m1 0h1m2 0h1m6 0h1m2 0h1m-28 1h7m4 0h2m4 0h1m1 0h2m1 0h2m1 0h1m1 0h1" /></svg><svg x="184.32" y="184.32" width="143.36" height="143.36" viewBox="0 0 900.0 900.0" preserveAspectRatio="xMidYMid meet"><rect x="0" y="0" width="900.0" height="900.0" fill="#FFFFFF" /><path d="M667.896 636.424H663.665V627.617C663.665 622.853 663.635 620.069 663.432 618.283C663.327 617.365 663.168 616.617 662.901 615.948C662.625 615.26 662.271 614.749 661.901 614.282L661.892 614.27L661.688 614.029C660.647 612.848 659.3 612.086 657.795 611.979C656.18 611.865 654.647 612.526 653.422 613.737L653.414 613.744C652.952 614.206 652.521 614.746 652.236 615.735C651.994 616.578 651.863 617.73 651.776 619.421C651.599 622.84 651.583 629.077 651.583 640.936C651.583 653.902 651.63 661.067 652.063 665.704C652.509 670.486 653.379 672.709 654.962 675.761C658.502 682.679 664.382 686.901 671.15 686.901C672.545 686.901 673.74 686.853 674.723 686.472C675.867 686.029 676.514 685.233 677.056 684.388C677.55 683.663 677.941 682.899 678.078 682.019C678.221 681.106 678.062 680.259 677.779 679.438C677.728 679.289 677.654 679.151 677.567 679.023C677.391 678.612 677.166 678.208 676.857 677.829C676.435 677.312 675.921 676.919 675.322 676.603C674.216 676.019 672.681 675.633 670.651 675.21C670.388 675.146 669.864 674.913 669.189 674.473C668.549 674.057 667.905 673.542 667.404 673.045C665.895 671.435 665.003 669.918 664.451 667.52C663.871 665 663.665 661.502 663.665 655.903V647.834H668.155C670.967 647.834 672.762 647.809 673.956 647.569C674.612 647.437 675.203 647.222 675.735 646.841C676.251 646.47 676.598 646.02 676.863 645.643C677.678 644.485 678.227 643.211 678.161 641.835C678.094 640.427 677.401 639.245 676.411 638.256C675.597 637.442 674.729 636.944 673.339 636.691C672.113 636.468 670.411 636.425 667.896 636.424Z" fill="#9C6ADE" />
<path fill-rule="evenodd" clip-rule="evenodd" d="M638.043 671.732C638.041 671.741 638.038 671.75 638.036 671.759L638.043 671.732Z" fill="#9C6ADE" />
<path fill-rule="evenodd" clip-rule="evenodd" d="M608.103 633.808C610.617 633.18 613.846 633.092 616.927 633.375C620.009 633.659 623.139 634.334 625.453 635.358C625.547 635.4 625.636 635.45 625.72 635.506C629.489 637.29 632.931 640.1 635.284 642.999C636.487 644.48 637.453 646.043 638.017 647.564C638.572 649.059 638.809 650.714 638.238 652.222L638.229 652.247C637.989 652.845 637.684 653.56 636.95 654.261C636.284 654.897 635.353 655.442 634.042 656.06C631.413 657.299 626.556 659.136 617.298 662.622C613.027 664.248 609.076 665.769 606.155 666.923C604.765 667.472 603.618 667.935 602.782 668.285C603.16 668.697 603.657 669.179 604.246 669.689C606.036 671.239 608.252 672.708 609.69 673.197C613.006 674.323 615.57 674.52 617.875 673.895C620.199 673.265 622.501 671.734 625.163 668.937L625.172 668.927C626.954 667.081 628.197 665.858 629.282 665.164C629.872 664.788 630.463 664.533 631.114 664.411C631.746 664.292 632.34 664.316 632.888 664.372C636.479 664.743 638.86 668.221 638.046 671.719L638.043 671.732L638.036 671.759C637.776 672.767 637.156 673.836 636.439 674.831C635.699 675.858 634.757 676.94 633.714 677.989C631.639 680.074 629.048 682.145 626.634 683.441C626.292 683.624 625.963 683.803 625.643 683.978C624.211 684.76 622.961 685.442 621.523 685.91C619.706 686.501 617.637 686.749 614.403 686.749C610.277 686.749 607.039 685.528 603.974 684.259C595.059 680.688 588.825 672.04 587.989 662.409C586.857 648.871 595.075 637.146 608.103 633.808ZM621.38 647.154C615.983 644.1 608.767 645.15 604.337 649.638C604.329 649.646 604.321 649.654 604.313 649.662C603.193 650.754 601.977 652.64 601.124 654.463C600.899 654.943 600.711 655.4 600.559 655.815C601.071 655.648 601.654 655.451 602.297 655.227C604.795 654.356 608.101 653.119 611.398 651.835C614.696 650.552 617.964 649.228 620.388 648.185C620.97 647.934 621.498 647.701 621.963 647.491C621.78 647.381 621.591 647.27 621.395 647.162C621.39 647.159 621.385 647.157 621.38 647.154Z" fill="#9C6ADE" />
<path fill-rule="evenodd" clip-rule="evenodd" d="M541.155 661.921C541.158 661.849 541.161 661.778 541.164 661.708L541.158 661.85L541.155 661.921Z" fill="#9C6ADE" />
<path d="M541.02 670.74C541.02 675.845 540.989 678.974 540.825 680.959C540.663 682.915 540.353 684.191 539.423 685.182C538.278 686.419 536.625 686.908 535.113 686.876C533.586 686.844 531.958 686.28 530.769 685.091C530.331 684.653 529.867 684.128 529.563 683.125C529.306 682.277 529.177 681.124 529.097 679.43C528.937 675.999 528.971 669.677 529.068 657.494L529.263 632.528L529.275 632.34C529.297 632.154 529.348 631.971 529.429 631.801L531.208 628.027C534.6 620.785 541.276 614.988 548.654 612.869C550.671 612.287 554.112 612.1 557.085 612.19C557.188 612.176 557.293 612.17 557.399 612.175C576.948 613.172 588.822 633.699 580.258 651.221C578.97 653.832 576.685 656.586 574.146 658.908C571.606 661.231 568.663 663.261 565.951 664.329L565.936 664.335C561.935 665.868 557.299 666.335 552.921 665.874C548.582 665.418 544.351 664.033 541.164 661.708C541.162 661.755 541.16 661.802 541.158 661.85L541.155 661.921C541.15 662.037 541.146 662.156 541.141 662.279C541.069 664.44 541.02 667.436 541.02 670.74ZM562.201 626.21C558.339 624.36 555.72 624.039 552.283 624.678C545.051 626.082 539.566 633.943 540.737 641.24C541.022 642.976 541.92 645.047 543.226 646.974C544.45 648.779 545.946 650.329 547.432 651.302L547.729 651.488L547.766 651.511C549.312 652.495 551.513 653.2 553.849 653.495C556.179 653.79 558.456 653.654 560.135 653.125L560.38 653.038C561.637 652.558 563.306 651.429 564.929 649.934C566.643 648.353 568.085 646.567 568.792 645.135L568.85 645.027C568.866 645 568.882 644.973 568.899 644.947C572.034 638.161 568.882 629.408 562.201 626.21Z" fill="#9C6ADE" />
<path fill-rule="evenodd" clip-rule="evenodd" d="M538.829 380.938C538.829 380.938 518.526 423.801 531.931 439.311C533.037 440.59 533.189 442.434 532.452 443.953C528.395 452.304 518.092 479.267 530.218 518.681C539.87 550.047 536.964 564.06 531.497 568.268C527.658 571.218 524.426 574.906 522.409 579.309C520.652 583.127 519.328 587.596 520.088 591.392C520.5 593.453 522.322 594.928 524.404 594.928H558.482C558.482 594.928 565.857 594.928 565.857 587.552C565.857 580.177 572.105 486.317 587.289 477.64C593.317 474.196 606.334 468.898 617.419 482.954C618.937 484.885 621.779 485.167 623.666 483.605C625.705 481.892 625.792 478.79 623.839 476.989C618.742 472.26 608.742 464.69 598.438 466.404C583.688 468.855 576.291 472.542 570.152 492.238C564.013 511.913 561.541 538.963 560.304 553.735C559.436 564.234 558.547 576.576 558.113 582.845C557.961 585.145 556.031 586.945 553.732 586.945H535.727C532.018 586.945 529.892 582.585 532.3 579.787C534.361 577.357 537.419 574.906 541.844 573.431C551.063 570.351 544.296 529.158 540.608 520.546C537.116 512.412 529.241 470.221 537.723 450.026C538.526 448.117 540.586 447.076 542.625 447.445C548.2 448.464 559.436 449.723 563.97 444.278C570.109 436.903 573.818 429.528 568.894 411.068C565.662 398.964 558.742 390.569 554.361 386.231C552.322 384.213 552.734 380.786 555.228 379.333C560.348 376.339 569.458 372.803 582.061 374.864C583.666 375.124 584.968 376.252 585.467 377.793C586.595 381.263 589.805 387.814 598.742 392.196C599.328 392.478 600 392.63 600.651 392.63H621.779C621.779 392.63 627.917 392.63 621.779 404.929C615.64 417.228 593.493 428.291 589.805 427.076C586.117 425.862 586.117 436.924 589.805 444.3C593.493 451.675 599.653 462.738 604.555 463.974C609.458 465.211 613.167 459.05 610.694 455.362C608.482 452.022 601.215 448.703 598.026 438.096C597.419 436.078 598.438 433.931 600.326 432.998C608.113 429.202 627.917 418.183 632.82 402.478C638.264 385.081 624.469 383.064 621.193 382.825C620.803 382.803 620.434 382.825 620.065 382.89C617.896 383.302 608.417 384.821 600.846 381.567C600.846 381.567 597.158 381.567 592.234 369.268C587.31 356.968 544.274 364.344 538.742 380.96L538.829 380.938Z" fill="#9C6ADE" />
<path d="M627.289 519.158C627.722 516.967 629.87 515.492 632.082 515.839C636.334 516.512 642.993 518.876 647.657 526.685C655.228 539.31 636.811 574.234 636.594 574.646C636.876 574.819 653.709 584.581 643.991 596.75C643.991 596.75 643.97 596.771 643.948 596.771H600.933C600.694 596.706 547.224 583.713 584.035 522.369C584.035 522.369 587.397 515.601 599.697 504.538C611.996 493.475 621.822 494.69 634.122 475.037C633.84 474.864 615.727 463.801 623.059 443.063C623.059 443.063 623.059 439.376 631.67 439.376C636.399 439.376 640.369 437.163 643.015 435.146C645.662 433.129 649.176 432.001 652.646 432.001H662.408C662.408 432.001 662.408 432.001 662.429 432.001C662.625 431.827 671.041 424.495 674.729 423.389C678.915 422.131 684.728 423.801 675.965 446.751C675.965 446.751 698.611 485.688 687.028 522.998C679.674 546.685 676.117 558.984 676.008 566.013C675.943 569.678 678.481 572.954 682.082 573.583C686.616 574.386 693.904 577.813 695.379 591.565C695.683 594.429 693.535 596.793 690.672 596.793H669.002C666.746 596.793 664.902 594.949 664.902 592.693V591.934C664.902 589.852 666.594 588.182 668.655 588.182H686.963C686.963 588.182 687.028 588.16 687.006 588.116C686.767 587.27 684.034 578.399 673.492 579.57C673.492 579.57 663.644 575.882 669.805 550.047C675.943 524.212 688.243 514.386 683.34 484.863C678.525 455.992 667.831 448.291 667.375 447.987C667.375 447.987 667.375 447.966 667.375 447.944L669.805 437.011C669.805 437.011 669.761 436.925 669.739 436.946L661.236 440.59C661.236 440.59 661.236 440.59 661.215 440.59C660.976 440.525 653.753 438.183 648.915 440.59C643.991 443.042 636.616 447.966 630.477 447.966C630.477 448.009 624.36 461.501 639.089 468.877C651.583 475.124 627.615 497.314 619.827 503.67C618.526 504.711 617.116 505.579 615.597 506.251C609.242 509.093 588.699 519.57 582.517 552.499C575.141 591.847 610.803 589.396 610.803 589.396H639.024C639.024 589.396 639.089 589.375 639.067 589.331C638.829 588.485 636.095 579.548 624.317 579.548C612.538 579.548 642.755 564.798 642.755 534.039C642.755 534.039 639.566 525.557 629.263 522.369C627.874 521.935 626.985 520.568 627.289 519.137V519.158Z" fill="#9C6ADE" />
<path d="M635.987 363.736C635.987 363.736 643.362 362.5 648.286 377.272C653.211 392.022 664.273 388.335 664.273 388.335C664.273 388.335 673.991 393.736 679.262 405.558C679.935 407.055 681.692 407.771 683.21 407.163C686.16 405.97 690.737 403.172 693.969 396.816C694.555 395.645 693.969 394.213 692.69 393.866C687.05 392.326 672.993 388.205 671.041 385.276C668.59 381.589 663.666 380.352 667.354 377.901C670.933 375.515 681.497 373.129 688.85 350.418C689.089 349.658 688.33 348.964 687.592 349.29C683.449 351.22 673.644 355.493 669.805 354.539C669.805 354.539 667.701 345.103 663.514 340.743C663.102 340.309 662.364 340.548 662.299 341.133C661.844 344.951 660.043 355.775 654.165 359.81C653.341 360.374 652.256 360.309 651.497 359.68C649.545 358.053 645.488 355.168 642.777 356.99C639.089 359.441 636.009 363.758 636.009 363.758L635.987 363.736Z" fill="#9C6ADE" />
<path fill-rule="evenodd" clip-rule="evenodd" d="M605.062 304.711C605.556 304.727 606.053 304.735 606.551 304.735H606.562H606.572C607.028 304.735 607.482 304.728 607.935 304.715L605.062 304.711Z" fill="#9C6ADE" />
<path fill-rule="evenodd" clip-rule="evenodd" d="M605.062 304.711C605.556 304.727 606.053 304.735 606.551 304.735H606.562H606.572C607.028 304.735 607.482 304.728 607.935 304.715L605.062 304.711Z" fill="#9C6ADE" />
<path fill-rule="evenodd" clip-rule="evenodd" d="M605.062 304.711C605.556 304.727 606.053 304.735 606.551 304.735H606.562C511.813 304.741 435.272 381.241 435.272 475.276C435.272 486.059 436.269 496.559 438.166 506.726C444.937 542.953 463.253 575.259 489.32 599.644C507.692 616.83 508.654 645.656 491.468 664.029C474.281 682.401 445.455 683.363 427.082 666.177C417.312 657.038 408.238 647.154 399.954 636.614C372.477 662.334 333.906 677.128 295.031 677.16L77.6799 677.768C52.522 677.838 32.0705 657.5 32.0002 632.343C31.9301 607.185 52.2681 586.733 77.426 586.663L294.778 586.055H294.904C331.4 586.055 348.267 562.141 348.267 547.183V530.698C348.267 528.67 348.102 526.676 347.776 524.693C347.707 524.366 347.641 524.037 347.579 523.707C343.835 503.83 320.097 479.983 281.001 479.982H177.249C140.703 479.982 106.403 467.36 80.673 445.375C54.8701 423.35 36.968 391.039 36.9679 353.585C36.9679 269.419 114.282 213 193.887 213H193.953L606.618 213.607C607.119 213.608 607.619 213.617 608.116 213.634C617.513 213.689 626.793 214.236 635.933 215.252C766.922 229.808 868.979 340.538 868.979 475.276C868.979 538.997 846.08 597.449 808.179 642.783L823.425 654.515L708.459 685.274L722.45 576.815L735.885 587.153C762.073 557.169 777.874 518.091 777.874 475.276C777.874 381.243 701.336 304.74 606.562 304.735H606.572C607.028 304.735 607.482 304.728 607.935 304.715L605.062 304.711ZM407.83 304.42C383.002 333.103 364.31 367.224 353.802 404.763C331.459 394.46 306.464 388.877 281.001 388.877H177.249C161.475 388.877 148.398 383.408 139.856 376.109L139.83 376.088C131.374 368.873 128.073 360.76 128.073 353.585C128.073 332.765 150.493 304.113 193.87 304.105L407.83 304.42Z" fill="#9C6ADE" />
</svg></svg>