<svg width="837" height="474" viewBox="0 0 837 474" fill="none" xmlns="http://www.w3.org/2000/svg">
<path d="M635.896 423.424H631.665V414.617C631.665 409.853 631.635 407.069 631.432 405.283C631.327 404.365 631.168 403.617 630.901 402.948C630.625 402.26 630.271 401.749 629.901 401.282L629.892 401.27L629.688 401.029C628.647 399.848 627.3 399.086 625.795 398.979C624.18 398.865 622.647 399.526 621.422 400.737L621.414 400.744C620.952 401.206 620.521 401.746 620.236 402.735C619.994 403.578 619.863 404.73 619.776 406.421C619.599 409.84 619.583 416.077 619.583 427.936C619.583 440.902 619.63 448.067 620.063 452.704C620.509 457.486 621.379 459.709 622.962 462.761C626.502 469.679 632.382 473.901 639.15 473.901C640.545 473.901 641.74 473.853 642.723 473.472C643.867 473.029 644.514 472.233 645.056 471.388C645.55 470.663 645.941 469.899 646.078 469.019C646.221 468.106 646.062 467.259 645.779 466.438C645.728 466.289 645.654 466.151 645.567 466.023C645.391 465.612 645.166 465.208 644.857 464.829C644.435 464.312 643.921 463.919 643.322 463.603C642.216 463.019 640.681 462.633 638.651 462.21C638.388 462.146 637.864 461.913 637.189 461.473C636.549 461.057 635.905 460.542 635.404 460.045C633.895 458.435 633.003 456.918 632.451 454.52C631.871 452 631.665 448.502 631.665 442.903V434.834H636.155C638.967 434.834 640.762 434.809 641.956 434.569C642.612 434.437 643.203 434.222 643.735 433.841C644.251 433.47 644.598 433.02 644.863 432.643C645.678 431.485 646.227 430.211 646.161 428.835C646.094 427.427 645.401 426.245 644.411 425.256C643.597 424.442 642.729 423.944 641.339 423.691C640.113 423.468 638.411 423.425 635.896 423.424Z" fill="white"/>
<path fill-rule="evenodd" clip-rule="evenodd" d="M606.043 458.732C606.041 458.741 606.038 458.75 606.036 458.759L606.043 458.732Z" fill="white"/>
<path fill-rule="evenodd" clip-rule="evenodd" d="M576.103 420.808C578.617 420.18 581.846 420.092 584.927 420.375C588.009 420.659 591.139 421.334 593.453 422.358C593.547 422.4 593.636 422.45 593.72 422.506C597.489 424.29 600.931 427.1 603.284 429.999C604.487 431.48 605.453 433.043 606.017 434.564C606.572 436.059 606.809 437.714 606.238 439.222L606.229 439.247C605.989 439.845 605.684 440.56 604.95 441.261C604.284 441.897 603.353 442.442 602.042 443.06C599.413 444.299 594.556 446.136 585.298 449.622C581.027 451.248 577.076 452.769 574.155 453.923C572.765 454.472 571.618 454.935 570.782 455.285C571.16 455.697 571.657 456.179 572.246 456.689C574.036 458.239 576.252 459.708 577.69 460.197C581.006 461.323 583.57 461.52 585.875 460.895C588.199 460.265 590.501 458.734 593.163 455.937L593.172 455.927C594.954 454.081 596.197 452.858 597.282 452.164C597.872 451.788 598.463 451.533 599.114 451.411C599.746 451.292 600.34 451.316 600.888 451.372C604.479 451.743 606.86 455.221 606.046 458.719L606.043 458.732L606.036 458.759C605.776 459.767 605.156 460.836 604.439 461.831C603.699 462.858 602.757 463.94 601.714 464.989C599.639 467.074 597.048 469.145 594.634 470.441C594.292 470.624 593.963 470.803 593.643 470.978C592.211 471.76 590.961 472.442 589.523 472.91C587.706 473.501 585.637 473.749 582.403 473.749C578.277 473.749 575.039 472.528 571.974 471.259C563.059 467.688 556.825 459.04 555.989 449.409C554.857 435.871 563.075 424.146 576.103 420.808ZM589.38 434.154C583.983 431.1 576.767 432.15 572.337 436.638C572.329 436.646 572.321 436.654 572.313 436.662C571.193 437.754 569.977 439.64 569.124 441.463C568.899 441.943 568.711 442.4 568.559 442.815C569.071 442.648 569.654 442.451 570.297 442.227C572.795 441.356 576.101 440.119 579.398 438.835C582.696 437.552 585.964 436.228 588.388 435.185C588.97 434.934 589.498 434.701 589.963 434.491C589.78 434.381 589.591 434.27 589.395 434.162C589.39 434.159 589.385 434.157 589.38 434.154Z" fill="white"/>
<path fill-rule="evenodd" clip-rule="evenodd" d="M509.155 448.921C509.158 448.849 509.161 448.778 509.164 448.708L509.158 448.85L509.155 448.921Z" fill="white"/>
<path d="M509.02 457.74C509.02 462.845 508.989 465.974 508.825 467.959C508.663 469.915 508.353 471.191 507.423 472.182C506.278 473.419 504.625 473.908 503.113 473.876C501.586 473.844 499.958 473.28 498.769 472.091C498.331 471.653 497.867 471.128 497.563 470.125C497.306 469.277 497.177 468.124 497.097 466.43C496.937 462.999 496.971 456.677 497.068 444.494L497.263 419.528L497.275 419.34C497.297 419.154 497.348 418.971 497.429 418.801L499.208 415.027C502.6 407.785 509.276 401.988 516.654 399.869C518.671 399.287 522.112 399.1 525.085 399.19C525.188 399.176 525.293 399.17 525.399 399.175C544.948 400.172 556.822 420.699 548.258 438.221C546.97 440.832 544.685 443.586 542.146 445.908C539.606 448.231 536.663 450.261 533.951 451.329L533.936 451.335C529.935 452.868 525.299 453.335 520.921 452.874C516.582 452.418 512.351 451.033 509.164 448.708C509.162 448.755 509.16 448.802 509.158 448.85L509.155 448.921C509.15 449.037 509.146 449.156 509.141 449.279C509.069 451.44 509.02 454.436 509.02 457.74ZM530.201 413.21C526.339 411.36 523.72 411.039 520.283 411.678C513.051 413.082 507.566 420.943 508.737 428.24C509.022 429.976 509.92 432.047 511.226 433.974C512.45 435.779 513.946 437.329 515.432 438.302L515.729 438.488L515.766 438.511C517.312 439.495 519.513 440.2 521.849 440.495C524.179 440.79 526.456 440.654 528.135 440.125L528.38 440.038C529.637 439.558 531.306 438.429 532.929 436.934C534.643 435.353 536.085 433.567 536.792 432.135L536.85 432.027C536.866 432 536.882 431.973 536.899 431.947C540.034 425.161 536.882 416.408 530.201 413.21Z" fill="white"/>
<path fill-rule="evenodd" clip-rule="evenodd" d="M506.829 167.938C506.829 167.938 486.526 210.801 499.931 226.311C501.037 227.59 501.189 229.434 500.452 230.953C496.395 239.304 486.092 266.267 498.218 305.681C507.87 337.047 504.964 351.06 499.497 355.268C495.658 358.218 492.426 361.906 490.409 366.309C488.652 370.127 487.328 374.596 488.088 378.392C488.5 380.453 490.322 381.928 492.404 381.928H526.482C526.482 381.928 533.857 381.928 533.857 374.552C533.857 367.177 540.105 273.317 555.289 264.64C561.317 261.196 574.334 255.898 585.419 269.954C586.937 271.885 589.779 272.167 591.666 270.605C593.705 268.892 593.792 265.79 591.839 263.989C586.742 259.26 576.742 251.69 566.438 253.404C551.688 255.855 544.291 259.542 538.152 279.238C532.013 298.913 529.541 325.963 528.304 340.735C527.436 351.234 526.547 363.576 526.113 369.845C525.961 372.145 524.031 373.945 521.732 373.945H503.727C500.018 373.945 497.892 369.585 500.3 366.787C502.361 364.357 505.419 361.906 509.844 360.431C519.063 357.351 512.296 316.158 508.608 307.546C505.116 299.412 497.241 257.221 505.723 237.026C506.526 235.117 508.586 234.076 510.625 234.445C516.2 235.464 527.436 236.723 531.97 231.278C538.109 223.903 541.818 216.528 536.894 198.068C533.662 185.964 526.742 177.569 522.361 173.231C520.322 171.213 520.734 167.786 523.228 166.333C528.348 163.339 537.458 159.803 550.061 161.864C551.666 162.124 552.968 163.252 553.467 164.793C554.595 168.263 557.805 174.814 566.742 179.196C567.328 179.478 568 179.63 568.651 179.63H589.779C589.779 179.63 595.917 179.63 589.779 191.929C583.64 204.228 561.493 215.291 557.805 214.076C554.117 212.862 554.117 223.924 557.805 231.3C561.493 238.675 567.653 249.738 572.555 250.974C577.458 252.211 581.167 246.05 578.694 242.362C576.482 239.022 569.215 235.703 566.026 225.096C565.419 223.078 566.438 220.931 568.326 219.998C576.113 216.202 595.917 205.183 600.82 189.478C606.264 172.081 592.469 170.064 589.193 169.825C588.803 169.803 588.434 169.825 588.065 169.89C585.896 170.302 576.417 171.821 568.846 168.567C568.846 168.567 565.158 168.567 560.234 156.268C555.31 143.968 512.274 151.344 506.742 167.96L506.829 167.938Z" fill="white"/>
<path d="M595.289 306.158C595.722 303.967 597.87 302.492 600.082 302.839C604.334 303.512 610.993 305.876 615.657 313.685C623.228 326.31 604.811 361.234 604.594 361.646C604.876 361.819 621.709 371.581 611.991 383.75C611.991 383.75 611.97 383.771 611.948 383.771H568.933C568.694 383.706 515.224 370.713 552.035 309.369C552.035 309.369 555.397 302.601 567.697 291.538C579.996 280.475 589.822 281.69 602.122 262.037C601.84 261.864 583.727 250.801 591.059 230.063C591.059 230.063 591.059 226.376 599.67 226.376C604.399 226.376 608.369 224.163 611.015 222.146C613.662 220.129 617.176 219.001 620.646 219.001H630.408C630.408 219.001 630.408 219.001 630.429 219.001C630.625 218.827 639.041 211.495 642.729 210.389C646.915 209.131 652.728 210.801 643.965 233.751C643.965 233.751 666.611 272.688 655.028 309.998C647.674 333.685 644.117 345.984 644.008 353.013C643.943 356.678 646.481 359.954 650.082 360.583C654.616 361.386 661.904 364.813 663.379 378.565C663.683 381.429 661.535 383.793 658.672 383.793H637.002C634.746 383.793 632.902 381.949 632.902 379.693V378.934C632.902 376.852 634.594 375.182 636.655 375.182H654.963C654.963 375.182 655.028 375.16 655.006 375.116C654.767 374.27 652.034 365.399 641.492 366.57C641.492 366.57 631.644 362.882 637.805 337.047C643.943 311.212 656.243 301.386 651.34 271.863C646.525 242.992 635.831 235.291 635.375 234.987C635.375 234.987 635.375 234.966 635.375 234.944L637.805 224.011C637.805 224.011 637.761 223.925 637.739 223.946L629.236 227.59C629.236 227.59 629.236 227.59 629.215 227.59C628.976 227.525 621.753 225.183 616.915 227.59C611.991 230.042 604.616 234.966 598.477 234.966C598.477 235.009 592.36 248.501 607.089 255.877C619.583 262.124 595.615 284.314 587.827 290.67C586.526 291.711 585.116 292.579 583.597 293.251C577.242 296.093 556.699 306.57 550.517 339.499C543.141 378.847 578.803 376.396 578.803 376.396H607.024C607.024 376.396 607.089 376.375 607.067 376.331C606.829 375.485 604.095 366.548 592.317 366.548C580.538 366.548 610.755 351.798 610.755 321.039C610.755 321.039 607.566 312.557 597.263 309.369C595.874 308.935 594.985 307.568 595.289 306.137V306.158Z" fill="white"/>
<path d="M603.987 150.736C603.987 150.736 611.362 149.5 616.286 164.272C621.211 179.022 632.273 175.335 632.273 175.335C632.273 175.335 641.991 180.736 647.262 192.558C647.935 194.055 649.692 194.771 651.21 194.163C654.16 192.97 658.737 190.172 661.969 183.816C662.555 182.645 661.969 181.213 660.69 180.866C655.05 179.326 640.993 175.205 639.041 172.276C636.59 168.589 631.666 167.352 635.354 164.901C638.933 162.515 649.497 160.129 656.85 137.418C657.089 136.658 656.33 135.964 655.592 136.29C651.449 138.22 641.644 142.493 637.805 141.539C637.805 141.539 635.701 132.103 631.514 127.743C631.102 127.309 630.364 127.548 630.299 128.133C629.844 131.951 628.043 142.775 622.165 146.81C621.341 147.374 620.256 147.309 619.497 146.68C617.545 145.053 613.488 142.168 610.777 143.99C607.089 146.441 604.009 150.758 604.009 150.758L603.987 150.736Z" fill="white"/>
<path fill-rule="evenodd" clip-rule="evenodd" d="M573.062 91.7108C573.556 91.7267 574.053 91.7347 574.551 91.7347H574.562H574.572C575.028 91.7347 575.482 91.728 575.935 91.7147L573.062 91.7108Z" fill="white"/>
<path fill-rule="evenodd" clip-rule="evenodd" d="M573.062 91.7108C573.556 91.7267 574.053 91.7347 574.551 91.7347H574.562H574.572C575.028 91.7347 575.482 91.728 575.935 91.7147L573.062 91.7108Z" fill="white"/>
<path fill-rule="evenodd" clip-rule="evenodd" d="M573.062 91.7108C573.556 91.7267 574.053 91.7347 574.551 91.7347H574.562C479.813 91.7406 403.272 168.241 403.272 262.276C403.272 273.059 404.269 283.559 406.166 293.726C412.937 329.953 431.253 362.259 457.32 386.644C475.692 403.83 476.654 432.656 459.468 451.029C442.281 469.401 413.455 470.363 395.082 453.177C385.312 444.038 376.238 434.154 367.954 423.614C340.477 449.334 301.906 464.128 263.031 464.16L45.6799 464.768C20.522 464.838 0.0704818 444.5 0.000180557 419.343C-0.0698975 394.185 20.2681 373.733 45.426 373.663L262.778 373.055H262.904C299.4 373.055 316.267 349.141 316.267 334.183V317.698C316.267 315.67 316.102 313.676 315.776 311.693C315.707 311.366 315.641 311.037 315.579 310.707C311.835 290.83 288.097 266.983 249.001 266.982H145.249C108.703 266.982 74.4034 254.36 48.673 232.375C22.8701 210.35 4.96801 178.039 4.96787 140.585C4.96787 56.419 82.2824 0 161.887 0H161.953L574.618 0.607422C575.119 0.608159 575.619 0.616986 576.116 0.633778C585.513 0.688504 594.793 1.23597 603.933 2.25168C734.922 16.8083 836.979 127.538 836.979 262.276C836.979 325.997 814.08 384.449 776.179 429.783L791.425 441.515L676.459 472.274L690.45 363.815L703.885 374.153C730.073 344.169 745.874 305.091 745.874 262.276C745.874 168.243 669.336 91.7402 574.562 91.7347H574.572C575.028 91.7347 575.482 91.728 575.935 91.7147L573.062 91.7108ZM375.83 91.4204C351.002 120.103 332.31 154.224 321.802 191.763C299.459 181.46 274.464 175.877 249.001 175.877H145.249C129.475 175.877 116.398 170.408 107.856 163.109L107.83 163.088C99.3741 155.873 96.0735 147.76 96.0733 140.585C96.0733 119.765 118.493 91.1126 161.87 91.1055L375.83 91.4204Z" fill="white"/>
</svg>
