<svg width="24" height="24" viewBox="0 0 24 24" fill="none" xmlns="http://www.w3.org/2000/svg">
<g clip-path="url(#clip0_53_36)">
<path d="M22.9665 12.0003C22.9665 5.94372 18.0569 1.03362 12.0003 1.0335C5.94365 1.0335 1.0335 5.94365 1.0335 12.0003C1.03357 15.2586 2.4552 18.1844 4.71132 20.193C4.87076 18.8718 5.2449 17.6495 6.14853 16.7123C7.2753 15.5438 9.11523 14.9286 12.0003 14.9286C14.8853 14.9286 16.7247 15.5438 17.8515 16.7123C18.7553 17.6497 19.1286 18.8722 19.288 20.1937C21.5446 18.1851 22.9664 15.259 22.9665 12.0003ZM12.0003 15.9621C9.23019 15.9621 7.73376 16.5574 6.89271 17.4296C6.08986 18.2622 5.78405 19.4464 5.67754 20.9607C7.46446 22.2239 9.64559 22.9665 12.0003 22.9665C14.3546 22.9665 16.5351 22.2241 18.3218 20.9614C18.2153 19.4469 17.9108 18.2623 17.108 17.4296C16.2669 16.5574 14.7704 15.9621 12.0003 15.9621ZM14.9286 8.55533C14.9286 6.93817 13.6175 5.62719 12.0003 5.62707C10.3831 5.62707 9.07208 6.9381 9.07208 8.55533C9.0722 10.1725 10.3832 11.4836 12.0003 11.4836C13.6174 11.4835 14.9285 10.1724 14.9286 8.55533ZM24 12.0003C23.9999 18.6276 18.6276 23.9999 12.0003 24C5.37293 24 0.000121447 18.6277 0 12.0003C0 5.37286 5.37286 0 12.0003 0C18.6277 0.000121455 24 5.37293 24 12.0003ZM15.9621 8.55533C15.962 10.7432 14.1882 12.517 12.0003 12.5171C9.81239 12.5171 8.0387 10.7432 8.03858 8.55533C8.03858 6.36731 9.81232 4.59357 12.0003 4.59357C14.1883 4.59369 15.9621 6.36738 15.9621 8.55533Z" fill="#949495"/>
</g>
<defs>
<clipPath id="clip0_53_36">
<rect width="24" height="24" rx="3" fill="white"/>
</clipPath>
</defs>
</svg>
